# generated from PmQm by Jehee Lee
:FULLY-SPECIFIED
:DEGREES
323
root 9.89859 3.68511 4.12408 -103.645 85.6562 -25.078
RightUpLeg -8.79081 -2.49358 -1.94378
RightLeg -6.27004 -33.0955 6.42871
RightFoot 16.0723 -5.30952 20.2204
RightToes 4.07452e-010 -1.59028e-015 9.93923e-017
Spine -32.7079 0.371476 4.8774
Spine1 27.5447 0.16188 -3.96192
HEad -43.8237 15.5675 7.35179
LeftShoulder1 9.93923e-017 -0 1.22299e-017
LeftArm 7.95014 41.4553 -59.2881
LeftForeArm 9.35245 -3.58022 -6.03183
LeftHand 1.48638 12.1156 -4.82506
RightShoulder 1.98785e-016 -4.96962e-017 1.55301e-017
RightArm 8.96507 -51.2625 57.4393
RightForeArm -17.8668 12.5122 1.1156
RightHand 3.36984 -21.5081 -9.79478
LeftUpLeg -14.792 2.85163 7.75067
LeftLeg 1.9022 25.2275 2.95449
LeftFoot 12.4444 4.81751 -20.6019
LeftToes 1.53707e-010 -1.11459e-010 1.58109e-011
324
root 9.89813 3.68363 4.12614 -103.248 85.6829 -24.626
RightUpLeg -8.74153 -2.54788 -1.97742
RightLeg -6.24241 -33.0911 6.44837
RightFoot 16.0544 -5.31655 20.2593
RightToes 4.07452e-010 -1.59028e-015 9.93923e-017
Spine -32.5616 0.388775 4.9207
Spine1 27.4406 0.200524 -4.03517
HEad -43.9297 15.6955 7.42867
LeftShoulder1 9.93923e-017 -0 1.22299e-017
LeftArm 8.00471 41.4764 -59.2426
LeftForeArm 9.27015 -3.58755 -6.0377
LeftHand 1.48809 12.1042 -4.76789
RightShoulder 1.98785e-016 -4.96962e-017 1.55301e-017
RightArm 8.8936 -51.2812 57.4843
RightForeArm -17.8193 12.5066 1.12079
RightHand 3.36785 -21.5018 -9.78387
LeftUpLeg -14.719 2.85212 7.75034
LeftLeg 1.88755 25.2636 2.94665
LeftFoot 12.4621 4.8205 -20.6019
LeftToes 1.53707e-010 -1.11459e-010 1.58109e-011
325
root 9.89769 3.68312 4.14503 -103.767 85.5828 -25.1733
RightUpLeg -8.71071 -2.37555 -1.83287
RightLeg -6.39792 -33.4144 6.45681
RightFoot 16.1265 -5.34342 20.3083
RightToes 4.07452e-010 -1.59028e-015 9.93923e-017
Spine -32.5067 0.322452 4.82882
Spine1 27.3173 0.111718 -3.92865
HEad -44.0026 15.793 7.52708
LeftShoulder1 9.93923e-017 -0 1.22299e-017
LeftArm 8.0806 41.5283 -59.148
LeftForeArm 9.31655 -3.58798 -6.0341
LeftHand 1.48988 12.0863 -4.79261
RightShoulder 1.98785e-016 -4.96962e-017 1.55301e-017
RightArm 8.90258 -51.3599 57.5291
RightForeArm -17.9069 12.5514 1.06364
RightHand 3.36058 -21.5392 -9.71872
LeftUpLeg -14.8294 2.98882 7.87247
LeftLeg 2.00645 25.0897 2.9432
LeftFoot 12.4189 4.8254 -20.6602
LeftToes 1.53707e-010 -1.11459e-010 1.58109e-011
326
root 9.89728 3.68549 4.16287 -104.715 85.477 -26.1324
RightUpLeg -8.64758 -2.21844 -1.69905
RightLeg -6.5559 -33.7616 6.47118
RightFoot 16.2045 -5.36542 20.3348
RightToes 4.07452e-010 -1.59028e-015 9.93923e-017
Spine -32.4338 0.219909 4.66552
Spine1 27.1713 -0.0272034 -3.73737
HEad -44.0639 15.9136 7.57205
LeftShoulder1 9.93923e-017 -0 1.22299e-017
LeftArm 8.17475 41.6182 -59.0657
LeftForeArm 9.33146 -3.59228 -6.03682
LeftHand 1.49174 12.0793 -4.82133
RightShoulder 1.98785e-016 -4.96962e-017 1.55301e-017
RightArm 8.94725 -51.434 57.5293
RightForeArm -17.9737 12.5781 1.02752
RightHand 3.35743 -21.5719 -9.67813
LeftUpLeg -14.9116 3.11721 7.98672
LeftLeg 2.10563 24.9153 2.93136
LeftFoot 12.37 4.82969 -20.7263
LeftToes 1.53707e-010 -1.11459e-010 1.58109e-011
327
root 9.89691 3.69454 4.16116 -105.5 85.4837 -26.81
RightUpLeg -8.50392 -2.32995 -1.76867
RightLeg -6.52086 -33.7797 6.51686
RightFoot 16.1866 -5.36459 20.3444
RightToes 4.07452e-010 -1.59028e-015 9.93923e-017
Spine -32.2959 0.170416 4.61501
Spine1 27.1023 -0.0712919 -3.71102
HEad -44.1534 16.0588 7.58714
LeftShoulder1 9.93923e-017 -0 1.22299e-017
LeftArm 8.20933 41.6736 -59.0369
LeftForeArm 9.29395 -3.59203 -6.03829
LeftHand 1.49385 12.0889 -4.81575
RightShoulder 1.98785e-016 -4.96962e-017 1.55301e-017
RightArm 8.91775 -51.4463 57.5135
RightForeArm -17.9115 12.5466 1.0618
RightHand 3.36588 -21.5637 -9.7461
LeftUpLeg -14.7719 3.1035 7.97541
LeftLeg 2.07684 24.9491 2.92043
LeftFoot 12.3633 4.82856 -20.725
LeftToes 1.53707e-010 -1.11459e-010 1.58109e-011
328
root 9.89658 3.70705 4.14746 -106.179 85.5593 -27.3106
RightUpLeg -8.31875 -2.61044 -1.9653
RightLeg -6.36292 -33.5508 6.58597
RightFoot 16.1022 -5.34634 20.3365
RightToes 4.07452e-010 -1.59028e-015 9.93923e-017
Spine -32.1549 0.167602 4.65961
Spine1 27.1371 -0.0368418 -3.81823
HEad -44.2804 16.1699 7.62996
LeftShoulder1 9.93923e-017 -0 1.22299e-017
LeftArm 8.1514 41.6632 -59.0495
LeftForeArm 9.28421 -3.58098 -6.03529
LeftHand 1.49755 12.117 -4.79481
RightShoulder 1.98785e-016 -4.96962e-017 1.55301e-017
RightArm 8.86044 -51.4217 57.5109
RightForeArm -17.8464 12.511 1.10341
RightHand 3.37636 -21.5525 -9.84305
LeftUpLeg -14.4996 3.00289 7.88619
LeftLeg 1.96752 25.1247 2.91123
LeftFoot 12.3969 4.82679 -20.6817
LeftToes 1.53707e-010 -1.11459e-010 1.58109e-011
329
root 9.89631 3.71282 4.14035 -106.603 85.5994 -27.624
RightUpLeg -8.20668 -2.76751 -2.07301
RightLeg -6.27572 -33.393 6.62588
RightFoot 16.0535 -5.33011 20.3101
RightToes 4.07452e-010 -1.59028e-015 9.93923e-017
Spine -32.061 0.155508 4.6367
Spine1 27.1623 -0.0388462 -3.81321
HEad -44.4239 16.2521 7.66281
LeftShoulder1 9.93923e-017 -0 1.22299e-017
LeftArm 8.04108 41.6513 -59.0874
LeftForeArm 9.28188 -3.56162 -6.02916
LeftHand 1.50349 12.1639 -4.76719
RightShoulder 1.98785e-016 -4.96962e-017 1.55301e-017
RightArm 8.91446 -51.4007 57.4912
RightForeArm -17.9176 12.5268 1.08966
RightHand 3.37714 -21.5837 -9.83058
LeftUpLeg -14.3239 2.95051 7.84031
LeftLeg 1.88357 25.2727 2.89681
LeftFoot 12.4454 4.8358 -20.6799
LeftToes 1.53707e-010 -1.11459e-010 1.58109e-011
